<?xml version="1.0" standalone="no"?>
<!DOCTYPE svg PUBLIC "-//W3C//DTD SVG 20010904//EN"
 "http://www.w3.org/TR/2001/REC-SVG-20010904/DTD/svg10.dtd">
<svg version="1.0" xmlns="http://www.w3.org/2000/svg"
 width="887.000000pt" height="1280.000000pt" viewBox="0 0 887.000000 1280.000000"
 preserveAspectRatio="xMidYMid meet">
<metadata>
Created by potrace 1.15, written by Peter Selinger 2001-2017
</metadata>
<g transform="translate(0.000000,1280.000000) scale(0.100000,-0.100000)"
fill="#000000" stroke="none">
<path d="M4160 12794 c-25 -2 -106 -8 -180 -14 -391 -32 -938 -161 -1305 -307
-517 -207 -902 -460 -1296 -853 -641 -639 -1061 -1446 -1189 -2286 -15 -99
-23 -209 -27 -384 -9 -414 11 -564 152 -1130 102 -409 123 -524 135 -739 l10
-164 -104 -181 c-211 -369 -292 -566 -338 -826 -19 -109 -16 -403 5 -509 59
-290 172 -509 361 -694 130 -127 318 -233 563 -316 l136 -46 19 -55 c39 -112
98 -363 113 -477 8 -65 19 -287 25 -493 16 -582 29 -866 45 -978 115 -806 582
-1445 1383 -1894 285 -160 618 -292 924 -367 297 -73 433 -85 907 -78 425 6
534 17 805 86 516 132 969 354 1361 667 140 111 370 341 463 462 184 239 319
516 397 816 76 289 92 458 105 1106 11 527 21 669 61 855 27 126 95 346 110
355 6 5 64 25 128 45 530 170 822 490 919 1010 24 130 23 417 -2 550 -49 266
-162 532 -374 880 l-54 90 6 150 c7 194 32 335 121 691 41 159 85 344 98 410
163 779 60 1524 -315 2278 -481 966 -1199 1648 -2123 2016 -392 156 -797 254
-1265 305 -136 15 -671 28 -780 19z m571 -139 c551 -56 1052 -171 1469 -340
613 -248 1141 -667 1584 -1255 209 -278 459 -723 519 -928 8 -27 23 -145 33
-261 20 -240 14 -328 -30 -467 -33 -104 -77 -171 -209 -318 -108 -121 -127
-154 -127 -224 0 -77 54 -142 119 -142 105 1 252 134 336 302 33 69 85 245 85
291 0 17 2 19 13 8 18 -18 14 -219 -7 -305 -35 -148 -79 -206 -228 -303 -53
-34 -113 -77 -133 -94 -54 -48 -85 -116 -85 -187 0 -68 17 -93 88 -124 51 -23
119 -20 170 6 57 29 123 109 169 204 25 51 47 92 48 90 4 -5 -15 -152 -26
-190 -13 -50 -98 -140 -229 -243 -114 -89 -175 -151 -190 -191 -32 -82 12
-144 101 -144 63 0 102 17 164 70 27 23 51 38 53 32 4 -12 -46 -209 -59 -235
-24 -43 -136 -61 -205 -32 -59 24 -141 102 -168 159 -15 31 -33 100 -45 176
-76 470 -43 860 110 1297 67 194 73 212 66 219 -30 31 -199 -270 -266 -473
-87 -266 -123 -565 -101 -846 34 -453 130 -710 501 -1347 195 -334 232 -400
226 -406 -10 -10 -234 195 -290 265 -32 39 -64 71 -71 71 -10 0 -15 -28 -19
-107 -8 -175 -34 -261 -161 -538 -25 -56 -51 -128 -57 -160 -20 -106 1 -232
57 -347 9 -21 16 -40 13 -42 -2 -2 -53 6 -114 18 -105 21 -166 44 -180 66 -12
19 -26 10 -42 -27 -13 -29 -17 -67 -16 -163 1 -69 3 -136 5 -150 3 -23 0 -25
-57 -32 -33 -3 -112 -23 -175 -43 -88 -28 -126 -35 -160 -31 -103 12 -104 12
-108 -8 -2 -10 9 -37 26 -60 39 -55 114 -188 108 -193 -2 -2 -21 3 -42 12
-106 45 -134 50 -314 49 -165 0 -180 -2 -255 -28 -98 -34 -150 -63 -307 -173
-154 -108 -246 -158 -326 -176 -35 -8 -65 -17 -68 -19 -14 -14 21 -42 167
-132 88 -54 158 -101 155 -103 -2 -2 -74 3 -159 12 -157 16 -247 12 -377 -16
-221 -48 -432 -177 -503 -307 -58 -107 -54 -227 8 -289 30 -30 38 -33 97 -33
138 0 205 41 347 209 155 184 224 237 376 288 73 25 93 27 230 27 129 0 165
-4 258 -27 60 -15 124 -27 143 -27 19 0 34 -5 34 -11 0 -6 -36 -50 -81 -97
-114 -123 -169 -228 -224 -432 -25 -95 -15 -88 -120 -74 -62 8 -118 -7 -175
-45 l-43 -29 -51 27 c-96 50 -216 30 -290 -48 l-29 -30 -43 35 c-81 66 -185
90 -259 60 -19 -8 -56 -35 -83 -60 l-48 -45 -59 59 c-33 33 -78 69 -102 80
-47 22 -134 27 -180 9 -33 -12 -83 -58 -83 -75 0 -29 -23 -23 -64 14 -67 62
-101 76 -182 77 -62 0 -76 -4 -113 -29 l-41 -29 -23 21 c-71 67 -201 52 -298
-36 -33 -30 -54 -42 -57 -34 -8 24 -54 73 -83 87 -39 21 -135 19 -184 -4 -23
-10 -69 -44 -103 -76 l-62 -57 -49 41 c-27 23 -65 48 -85 56 -73 31 -173 10
-244 -51 -22 -18 -43 -34 -47 -34 -3 0 -30 18 -58 40 -69 52 -136 68 -211 51
-31 -7 -65 -20 -78 -30 -21 -18 -23 -18 -83 15 -77 42 -132 51 -207 31 l-58
-15 -16 56 c-73 266 -123 370 -238 490 -43 45 -77 83 -75 83 2 1 16 3 31 4 15
2 80 16 145 30 244 56 406 44 583 -43 100 -49 144 -88 370 -329 74 -80 92 -93
139 -107 30 -9 86 -16 123 -16 60 0 72 3 94 25 106 106 50 314 -119 441 -123
92 -264 147 -461 179 -67 11 -267 6 -366 -9 -52 -8 -97 -12 -100 -9 -3 3 0 8
7 10 9 3 175 106 316 197 29 19 15 40 -33 48 -84 14 -179 67 -401 221 -200
139 -308 171 -544 164 -137 -4 -157 -7 -232 -35 -46 -17 -83 -29 -83 -26 0 12
57 115 92 167 45 67 48 104 8 99 -82 -12 -150 -4 -250 27 -58 18 -131 36 -163
39 l-59 5 7 63 c15 141 1 278 -31 305 -11 9 -20 5 -44 -14 -29 -24 -51 -31
-203 -61 -62 -12 -68 -11 -63 3 2 9 19 56 36 105 26 71 32 106 33 170 1 99
-16 159 -93 331 -105 234 -115 269 -133 451 -7 72 -17 119 -24 121 -6 2 -29
-20 -51 -49 -62 -84 -285 -289 -299 -275 -7 8 29 69 226 392 91 149 195 329
231 400 112 220 195 471 241 730 30 169 38 513 15 678 -42 295 -139 563 -292
800 -41 63 -57 77 -68 59 -2 -4 20 -79 50 -167 64 -188 106 -342 137 -509 20
-108 22 -152 21 -401 0 -262 -2 -289 -27 -415 -15 -74 -32 -152 -38 -173 -21
-76 -186 -207 -258 -207 -38 1 -107 35 -125 62 -16 24 -67 229 -59 237 2 3 20
-11 41 -31 56 -54 108 -78 170 -78 48 0 58 4 88 34 75 75 40 131 -199 323 -65
53 -136 117 -157 144 -38 48 -47 79 -65 224 l-6 50 44 -92 c47 -95 105 -168
163 -204 42 -26 155 -29 200 -6 76 39 94 117 50 212 -31 68 -64 101 -176 172
-106 68 -174 133 -207 198 -50 97 -77 321 -54 440 10 48 12 41 39 -101 46
-241 150 -398 324 -491 104 -56 188 1 188 127 0 29 -7 67 -16 86 -9 19 -70 91
-135 159 -65 69 -127 142 -137 163 -26 51 -59 155 -71 226 -23 129 -1 535 34
642 10 27 54 126 99 219 402 832 1009 1466 1763 1840 331 164 655 270 1105
359 479 96 853 124 1189 91z m-3158 -8466 c4 -30 23 -136 42 -236 19 -100 39
-235 46 -300 6 -65 13 -125 16 -133 9 -28 22 14 44 137 21 123 29 397 14 496
-9 58 9 65 24 10 13 -51 38 -259 51 -423 13 -162 18 -190 34 -190 15 0 49 174
73 370 9 74 17 136 18 138 7 9 39 -15 59 -44 21 -31 22 -38 13 -121 -14 -141
-2 -479 21 -613 43 -238 103 -379 270 -630 79 -119 114 -182 126 -225 10 -33
33 -81 52 -107 44 -61 96 -88 171 -89 56 0 59 -1 88 -42 62 -86 179 -118 285
-78 l50 19 31 -39 c17 -22 55 -53 83 -69 45 -26 60 -30 135 -30 69 0 94 5 141
26 l58 26 69 -57 c37 -31 97 -70 133 -88 56 -27 76 -32 141 -32 71 0 80 2 123
33 l46 34 51 -46 c82 -74 192 -96 275 -56 23 12 50 32 59 46 l16 25 38 -34
c21 -19 55 -40 76 -47 76 -25 188 7 263 74 l40 37 47 -33 c42 -30 53 -33 118
-33 62 0 82 5 148 37 41 20 104 62 138 93 56 50 65 55 80 42 40 -36 80 -47
167 -47 107 0 154 19 216 89 l43 48 50 -18 c114 -40 226 -9 286 77 29 43 31
44 85 44 68 0 119 25 168 82 32 37 66 117 66 154 0 7 21 43 47 81 137 200 248
407 292 541 71 219 95 492 70 775 l-12 128 33 34 c19 19 39 35 45 35 8 0 14
-32 18 -89 6 -96 43 -325 61 -381 6 -19 16 -34 21 -33 11 2 18 49 40 293 18
196 44 342 62 348 10 3 11 -5 5 -30 -4 -18 -7 -121 -6 -228 0 -193 16 -334 45
-406 l12 -29 7 25 c5 14 9 52 9 85 1 33 12 121 25 195 56 316 78 435 82 439
14 15 16 -23 4 -123 -9 -75 -11 -156 -6 -233 7 -137 38 -379 49 -390 14 -13
24 18 31 91 10 111 45 372 63 469 16 94 30 112 62 83 17 -16 17 -20 -1 -114
-47 -244 -57 -381 -68 -902 -11 -529 -19 -664 -51 -845 -44 -243 -92 -400
-185 -593 -74 -156 -140 -259 -251 -397 -392 -484 -1021 -867 -1708 -1039
-283 -71 -545 -91 -986 -76 -334 10 -447 24 -664 80 -602 156 -1082 421 -1499
830 -280 275 -422 489 -531 801 -104 300 -132 502 -145 1064 -15 668 -23 793
-60 1016 -11 64 -20 131 -20 148 0 29 3 32 27 29 27 -3 28 -6 44 -108 14 -89
30 -209 65 -492 7 -59 30 -65 38 -10 26 170 38 341 33 487 -4 88 -9 175 -13
194 -5 26 -4 33 7 29 8 -3 17 -27 22 -59z m1124 -850 c44 -28 57 -73 49 -173
-4 -45 -12 -108 -19 -141 l-13 -60 -107 -3 -108 -3 7 148 c3 81 10 165 15 186
19 74 97 94 176 46z m1608 12 c22 -10 52 -31 68 -46 l27 -28 0 -218 0 -219
-53 0 c-30 0 -109 3 -175 7 l-122 6 0 91 c0 127 22 261 53 321 51 101 113 127
202 86z m380 0 c81 -37 119 -108 136 -255 12 -104 9 -220 -6 -235 -6 -5 -88
-12 -184 -16 l-174 -7 6 200 c6 212 11 234 59 279 25 24 84 52 108 52 8 0 33
-8 55 -18z m1635 -8 c30 -28 30 -29 40 -178 6 -82 12 -163 15 -178 6 -37 -4
-40 -121 -30 l-98 8 -18 110 c-28 166 -12 236 60 274 52 28 86 26 122 -6z
m-3299 -35 c37 -38 65 -96 75 -156 7 -46 -3 -201 -15 -220 -6 -10 -40 -8 -149
5 l-142 17 0 33 c0 54 29 184 54 238 12 28 37 65 55 83 43 42 79 43 122 0z
m889 14 c19 -9 43 -33 55 -52 18 -32 20 -50 18 -219 -1 -101 -6 -188 -10 -192
-4 -4 -95 -5 -202 -2 l-194 6 6 131 c6 149 21 204 72 264 66 76 176 104 255
64z m1236 -6 c96 -45 130 -113 146 -297 11 -120 11 -132 -5 -144 -17 -12 -330
-28 -367 -18 -24 6 -30 50 -30 217 0 130 2 142 25 181 50 85 132 107 231 61z
m812 4 c40 -25 67 -67 92 -149 27 -86 44 -201 32 -213 -11 -11 -279 -45 -287
-36 -4 3 -11 51 -16 105 -8 87 -6 110 11 179 23 91 51 119 130 133 3 1 20 -8
38 -19z m-2558 -46 c23 -21 56 -68 77 -112 37 -74 38 -78 35 -176 -1 -55 -6
-104 -12 -110 -9 -9 -281 17 -317 31 -14 5 -15 20 -10 107 8 137 29 200 82
253 55 56 89 57 145 7z m2220 -2 c38 -28 68 -98 80 -193 16 -120 11 -161 -20
-176 -37 -17 -288 -39 -301 -26 -6 6 -13 53 -16 105 -4 73 -2 106 11 145 24
72 68 136 107 156 40 21 101 16 139 -11z m-2977 -394 l57 -11 0 -66 c0 -36 -3
-109 -6 -162 -7 -93 -8 -96 -39 -117 -44 -31 -69 -28 -114 14 -60 53 -75 104
-68 222 10 144 10 145 66 137 25 -3 72 -11 104 -17z m3741 5 c14 -44 23 -186
15 -228 -11 -57 -19 -72 -63 -114 -46 -45 -94 -48 -133 -8 -26 26 -27 28 -28
178 -1 102 2 152 9 155 23 9 142 32 168 33 17 1 29 -5 32 -16z m-3438 -48 c60
-9 112 -19 115 -23 4 -4 9 -80 12 -169 3 -130 2 -166 -10 -183 -30 -43 -112
-66 -174 -50 -67 18 -96 105 -106 318 l-6 122 30 0 c16 0 79 -7 139 -15z
m3141 -127 c-6 -162 -28 -243 -82 -306 -51 -58 -116 -42 -176 42 l-29 39 0
168 0 168 43 6 c138 19 166 23 206 24 l44 1 -6 -142z m-372 -20 c-9 -169 -20
-233 -50 -294 -49 -101 -147 -127 -254 -69 l-53 29 6 76 c3 41 8 135 12 207
l7 133 31 5 c31 6 254 32 289 34 18 1 18 -7 12 -121z m-2348 99 c62 -7 117
-17 122 -22 4 -6 11 -101 15 -212 l7 -201 -33 -20 c-19 -12 -54 -26 -80 -33
-39 -11 -52 -10 -92 5 -56 21 -89 62 -117 142 -22 65 -41 246 -32 312 l6 42
46 0 c25 -1 97 -7 158 -13z m536 -43 l77 -6 0 -177 c0 -97 5 -205 10 -239 5
-35 6 -70 4 -77 -8 -21 -77 -62 -134 -81 -124 -41 -214 43 -255 238 -17 81
-32 316 -21 343 6 16 18 17 124 11 64 -3 152 -9 195 -12z m1391 -51 c-13 -170
-36 -349 -51 -392 -43 -130 -157 -177 -280 -116 -82 41 -88 52 -75 137 6 40
14 149 17 243 3 93 7 171 9 172 3 4 249 19 333 22 l52 1 -5 -67z m-930 50 l39
-6 -5 -263 c-5 -296 -3 -289 -83 -325 -83 -38 -157 -14 -196 63 -42 82 -51
136 -56 335 l-5 192 113 4 c63 1 123 4 134 5 11 1 37 -1 59 -5z m444 -9 c22
-6 8 -349 -19 -447 -37 -138 -147 -194 -250 -129 -75 48 -72 36 -77 312 -3
137 -2 256 2 265 5 14 25 15 168 9 90 -3 169 -7 176 -10z"/>
<path d="M4404 12590 c-12 -4 -31 -21 -44 -37 -19 -24 -21 -36 -17 -89 3 -34
15 -85 26 -114 26 -68 82 -160 97 -160 14 0 49 86 69 174 18 73 19 156 4 189
-19 41 -82 59 -135 37z"/>
<path d="M5009 12515 c-113 -22 -210 -108 -273 -241 -20 -41 -36 -81 -36 -90
0 -26 27 -26 67 -1 48 31 83 42 202 62 113 19 155 36 198 77 43 42 59 89 41
124 -30 62 -105 88 -199 69z"/>
<path d="M3710 12498 c-59 -40 -65 -107 -14 -168 39 -45 71 -58 212 -85 85
-16 147 -35 186 -55 32 -16 62 -30 66 -30 42 0 -41 178 -121 259 -71 72 -117
94 -214 99 -72 3 -84 1 -115 -20z"/>
<path d="M3196 12359 c-60 -14 -154 -69 -187 -108 -44 -53 -55 -103 -32 -148
48 -97 127 -102 368 -23 147 48 168 53 253 53 84 0 96 -3 130 -27 36 -25 37
-26 40 -6 12 77 -183 227 -336 259 -62 13 -181 13 -236 0z"/>
<path d="M5441 12359 c-61 -12 -166 -63 -228 -111 -55 -42 -113 -119 -113
-150 0 -25 13 -23 51 9 31 26 37 27 129 26 88 -1 110 -6 251 -54 175 -61 258
-70 315 -35 128 77 48 247 -144 306 -68 21 -180 25 -261 9z"/>
<path d="M3915 12036 c-38 -13 -131 -51 -206 -84 -175 -78 -235 -93 -351 -90
l-93 3 -8 -45 c-15 -82 -39 -154 -77 -230 -40 -79 -236 -418 -251 -434 -5 -6
-16 -3 -27 7 -38 35 -89 47 -197 47 -125 0 -143 -7 -231 -92 l-61 -58 -45 25
c-83 46 -155 65 -248 65 -118 0 -220 -35 -220 -76 0 -7 14 -24 32 -37 l32 -25
-40 -7 c-165 -29 -290 -76 -358 -137 -49 -42 -55 -58 -31 -78 8 -7 15 -15 15
-19 0 -3 -36 -30 -79 -59 -44 -29 -111 -83 -150 -121 -71 -68 -87 -101 -56
-118 11 -7 -6 -28 -77 -93 -102 -94 -178 -190 -178 -225 0 -24 17 -35 51 -35
16 0 7 -15 -42 -70 -121 -134 -236 -314 -227 -356 1 -9 10 -21 19 -27 12 -7
35 5 99 53 47 34 114 77 150 95 105 53 260 115 260 104 0 -5 -7 -26 -15 -46
-19 -46 -19 -72 1 -80 8 -3 76 11 151 32 74 20 136 35 138 33 3 -2 -7 -20 -21
-39 -26 -38 -24 -64 5 -74 9 -3 50 6 91 20 88 30 100 31 100 6 0 -38 24 -44
138 -38 59 4 124 9 145 13 35 6 37 5 37 -20 0 -49 90 -60 261 -29 152 27 137
34 186 -87 70 -175 76 -233 30 -326 -29 -61 -20 -67 105 -69 160 -3 228 -35
603 -280 307 -201 464 -246 612 -175 35 16 85 50 113 76 l49 46 78 -26 c240
-79 486 -45 679 93 l57 41 125 0 c69 0 153 5 188 11 l62 11 45 -35 c76 -58
126 -72 257 -72 92 0 130 5 190 24 164 51 289 131 423 270 86 89 92 98 182
285 l93 193 79 -1 c91 -1 139 20 130 56 -5 19 -3 19 56 11 34 -4 105 -8 157
-8 l95 0 3 28 c4 33 8 33 104 1 61 -20 81 -23 97 -14 26 13 26 27 1 65 -25 37
-25 48 -2 42 9 -3 70 -19 134 -37 64 -18 124 -30 132 -27 20 8 20 36 0 87 -9
23 -15 43 -12 45 6 6 248 -99 307 -134 28 -17 82 -54 118 -81 36 -28 69 -50
73 -50 4 0 15 9 24 19 17 19 16 23 -20 93 -43 81 -162 244 -218 297 -42 41
-45 51 -12 51 13 0 29 6 35 14 22 26 -26 95 -146 215 -106 105 -113 114 -98
131 14 15 12 20 -19 60 -43 55 -143 140 -219 187 l-58 36 21 22 c26 28 25 36
-7 67 -64 59 -237 129 -355 143 -32 4 -58 10 -58 14 0 3 14 14 30 23 32 18 41
57 17 77 -27 21 -139 43 -190 37 -79 -11 -141 25 -262 153 -237 251 -273 280
-357 296 -45 9 -98 -8 -139 -43 -24 -20 -35 -23 -48 -15 -37 23 -23 40 54 67
233 83 470 105 645 59 30 -7 56 -16 58 -18 3 -2 -14 -25 -36 -50 -122 -139
-85 -373 64 -401 64 -12 156 1 214 31 74 37 165 126 186 181 21 56 15 144 -16
204 -66 129 -280 263 -487 306 -148 31 -343 1 -500 -76 -87 -43 -186 -125
-224 -186 l-21 -35 -30 28 c-100 95 -198 244 -229 345 -13 45 -25 68 -35 68
-8 0 -41 -11 -74 -25 -92 -39 -159 -53 -324 -70 -220 -22 -294 -34 -363 -56
-67 -22 -137 -76 -174 -135 l-22 -36 -36 68 c-50 97 -148 194 -226 224 -93 36
-237 39 -330 6z"/>
<path d="M2387 11919 c-137 -18 -305 -101 -417 -206 -85 -80 -115 -137 -115
-223 0 -85 37 -156 115 -217 127 -100 272 -110 370 -26 57 49 73 86 74 163 0
77 -23 130 -86 191 -50 48 -46 52 57 71 157 29 388 8 568 -52 109 -37 157 -39
157 -8 0 34 -74 123 -144 173 -148 105 -383 160 -579 134z"/>
<path d="M1522 9634 c-65 -17 -102 -36 -146 -74 -88 -78 -68 -169 51 -229 50
-25 178 -29 334 -9 113 14 199 3 283 -35 93 -43 285 -174 304 -208 43 -77 58
-77 55 -2 -6 155 -222 384 -480 509 -125 61 -284 80 -401 48z"/>
<path d="M7035 9627 c-262 -88 -479 -280 -552 -489 -24 -68 -25 -118 -3 -118
6 0 23 21 39 46 22 36 56 64 154 129 199 131 258 146 493 125 218 -20 344 8
381 85 15 31 15 37 -1 79 -20 52 -74 103 -145 137 -39 20 -65 24 -171 26 -109
3 -134 0 -195 -20z"/>
<path d="M1598 9171 c-77 -25 -147 -95 -174 -176 -15 -41 -15 -48 0 -70 32
-49 100 -46 276 11 103 34 126 38 215 38 95 -1 136 -10 228 -49 14 -6 17 -2
17 18 0 49 -158 168 -279 211 -62 21 -236 32 -283 17z"/>
<path d="M7033 9165 c-131 -35 -323 -168 -323 -222 0 -17 2 -16 125 12 97 23
234 15 339 -20 44 -14 112 -31 152 -37 63 -10 76 -9 98 5 14 10 29 29 32 43
18 70 -79 189 -177 218 -64 19 -176 20 -246 1z"/>
<path d="M2426 8894 c-175 -32 -412 -133 -591 -252 -172 -114 -350 -301 -430
-453 -39 -74 -43 -94 -19 -103 29 -11 41 -6 128 60 481 362 1050 469 1488 280
204 -88 345 -192 579 -426 311 -310 483 -556 549 -785 23 -81 33 -100 49 -91
25 16 4 163 -58 411 -73 290 -187 526 -359 744 -78 99 -241 256 -347 336 -167
126 -415 246 -574 280 -91 19 -307 18 -415 -1z"/>
<path d="M6053 8895 c-451 -82 -929 -482 -1165 -975 -57 -121 -121 -318 -163
-510 -41 -183 -50 -285 -25 -285 10 0 27 34 51 105 41 123 72 185 144 295 172
264 458 566 703 742 110 80 320 185 437 219 123 36 383 46 532 19 263 -47 552
-177 790 -357 137 -104 179 -84 108 51 -164 312 -649 640 -1035 701 -88 13
-289 11 -377 -5z"/>
<path d="M4342 8639 c-259 -45 -395 -337 -296 -637 13 -40 69 -166 123 -280
145 -304 188 -441 226 -715 8 -60 18 -113 21 -119 12 -20 24 17 24 76 0 46 13
96 56 220 31 89 60 166 64 171 14 17 139 403 168 515 23 92 26 125 27 270 0
143 -3 174 -22 235 -66 207 -199 297 -391 264z"/>
<path d="M2243 8155 c-186 -33 -443 -136 -590 -237 -154 -105 -311 -284 -392
-445 -213 -426 -131 -955 202 -1295 276 -283 637 -408 1089 -378 574 38 942
258 1144 684 165 349 146 798 -47 1113 -90 148 -201 247 -397 357 -113 63
-349 158 -466 187 -107 28 -419 35 -543 14z"/>
<path d="M6197 8154 c-305 -47 -676 -223 -857 -405 -184 -186 -275 -425 -274
-719 1 -211 44 -391 138 -578 190 -376 490 -574 948 -626 419 -48 659 -22 903
98 327 161 563 441 653 774 23 86 26 115 26 257 -1 140 -4 172 -27 257 -117
440 -451 773 -906 903 -185 53 -417 68 -604 39z"/>
<path d="M4216 6457 c-9 -12 -56 -124 -106 -247 -112 -275 -169 -390 -290
-585 -170 -272 -213 -396 -212 -610 0 -190 46 -301 149 -362 44 -26 56 -28
148 -28 90 0 105 3 153 28 140 74 238 221 295 445 21 82 22 108 22 442 0 320
-2 370 -23 510 -28 187 -67 382 -82 410 -14 26 -36 25 -54 -3z"/>
<path d="M4602 6463 c-12 -23 -57 -274 -77 -426 -37 -292 -42 -735 -10 -902
43 -223 162 -413 304 -482 49 -25 67 -28 152 -28 89 0 99 2 145 30 28 17 63
52 82 79 53 80 67 142 67 301 0 221 -20 276 -228 619 -135 224 -165 286 -279
570 -43 110 -86 212 -94 228 -16 32 -48 37 -62 11z"/>
<path d="M3783 6350 c-126 -76 -44 -268 98 -230 105 28 124 186 28 236 -39 20
-88 18 -126 -6z"/>
<path d="M4913 6350 c-65 -39 -81 -119 -38 -182 59 -87 196 -62 225 41 31 112
-88 202 -187 141z"/>
<path d="M3412 5870 c-50 -30 -72 -75 -72 -144 0 -57 2 -61 45 -102 71 -69
145 -71 216 -7 85 77 69 206 -33 259 -40 21 -117 18 -156 -6z"/>
<path d="M5239 5866 c-106 -72 -85 -235 37 -282 40 -15 52 -16 92 -5 57 15 79
34 103 86 25 53 24 92 -3 145 -42 80 -153 107 -229 56z"/>
<path d="M1738 5644 c-52 -28 -72 -98 -44 -153 21 -39 58 -61 107 -61 33 0 47
6 75 34 29 29 34 41 34 81 0 40 -5 52 -34 81 -27 27 -42 34 -72 34 -22 -1 -51
-7 -66 -16z"/>
<path d="M6964 5641 c-30 -18 -54 -64 -54 -103 0 -32 29 -77 60 -93 99 -51
208 40 166 139 -30 71 -107 97 -172 57z"/>
<path d="M2880 5537 c-48 -25 -90 -89 -90 -136 0 -41 41 -113 79 -138 64 -43
168 -23 213 40 31 43 36 130 10 177 -23 43 -85 80 -133 80 -20 0 -55 -10 -79
-23z"/>
<path d="M5820 5553 c-60 -24 -110 -94 -110 -153 0 -43 22 -90 59 -124 41 -39
127 -48 181 -18 101 55 106 202 8 275 -27 20 -110 32 -138 20z"/>
<path d="M2255 5518 c-43 -15 -75 -47 -97 -97 -45 -100 31 -211 145 -211 80 0
136 42 156 118 16 56 1 109 -41 149 -53 51 -101 63 -163 41z"/>
<path d="M6454 5511 c-113 -52 -126 -209 -24 -278 45 -31 129 -32 177 -2 72
45 94 157 44 228 -44 61 -129 84 -197 52z"/>
<path d="M4260 4561 c-103 -106 -171 -144 -270 -149 -61 -3 -71 0 -168 47 -75
37 -115 51 -145 51 -78 0 -117 -50 -117 -150 0 -57 3 -63 40 -103 21 -24 65
-57 97 -73 51 -25 69 -29 143 -29 76 0 93 4 150 32 75 37 158 108 217 185 80
103 164 260 145 272 -4 2 -45 -35 -92 -83z"/>
<path d="M4520 4635 c0 -29 79 -172 138 -251 145 -191 328 -273 483 -215 112
42 179 111 179 183 0 53 -27 115 -62 139 -46 33 -86 28 -199 -26 -134 -64
-183 -69 -273 -27 -97 45 -150 85 -201 152 -46 60 -65 73 -65 45z"/>
<path d="M2450 4273 c-8 -3 -22 -11 -30 -18 -8 -7 -37 -15 -63 -18 -27 -2 -53
-9 -59 -15 -7 -7 13 -38 60 -95 39 -47 108 -139 155 -204 127 -176 164 -205
232 -183 43 14 55 35 55 93 0 67 -49 154 -143 254 -82 86 -76 93 19 23 49 -37
103 -109 175 -234 71 -122 149 -186 227 -186 28 0 45 7 63 26 20 22 24 35 24
92 0 57 -6 77 -35 132 -42 77 -153 192 -232 238 -70 41 -172 78 -258 91 -68
11 -165 13 -190 4z"/>
<path d="M4381 4258 c-66 -34 -86 -67 -86 -141 0 -48 5 -69 22 -93 33 -46 84
-67 150 -62 44 4 60 11 89 39 40 39 59 93 50 141 -20 109 -130 166 -225 116z"/>
<path d="M6245 4271 c-263 -33 -510 -241 -532 -448 -11 -98 12 -133 86 -133
84 0 160 68 244 217 48 84 89 143 124 174 32 30 134 99 146 99 4 0 -34 -40
-86 -89 -112 -107 -151 -171 -152 -249 0 -48 3 -57 33 -83 68 -61 100 -37 299
223 76 99 147 192 157 206 19 24 19 25 1 38 -10 8 -37 14 -58 14 -26 0 -44 6
-52 17 -15 20 -110 26 -210 14z"/>
<path d="M1760 3191 c0 -74 -21 -147 -76 -266 -69 -147 -104 -252 -104 -308 1
-90 58 -202 165 -326 53 -60 69 -88 91 -155 15 -44 38 -105 51 -133 13 -31 18
-53 12 -53 -6 0 -43 21 -81 46 -61 41 -86 66 -160 166 -69 92 -22 -257 52
-386 57 -101 157 -183 255 -211 28 -8 122 -19 210 -25 132 -9 176 -16 253 -41
75 -25 91 -34 82 -44 -14 -17 -192 -136 -240 -160 -19 -10 -63 -20 -97 -23
-35 -2 -66 -9 -69 -13 -3 -5 14 -29 37 -54 86 -94 247 -141 392 -117 94 16
143 40 310 150 160 105 191 119 237 100 l31 -13 -46 -54 c-26 -30 -78 -98
-117 -150 -84 -114 -128 -163 -185 -202 -31 -22 -43 -37 -43 -55 0 -40 54 -58
180 -59 174 0 249 40 389 209 106 129 143 157 209 164 67 6 74 -10 24 -53 -23
-21 -56 -67 -82 -115 -45 -88 -90 -146 -121 -155 -10 -4 -24 -16 -30 -28 -10
-17 -8 -24 11 -39 18 -15 40 -18 119 -18 128 0 179 17 281 90 67 48 91 60 121
60 34 0 41 -4 64 -43 34 -58 34 -136 2 -198 -28 -53 -113 -109 -165 -109 -37
0 -82 37 -82 68 0 29 -24 46 -48 33 -21 -11 -42 -78 -42 -133 0 -56 39 -119
90 -146 91 -48 256 -12 326 71 52 62 68 107 67 192 0 90 -17 143 -83 256 -45
76 -46 79 -25 79 66 0 223 -135 311 -265 62 -95 158 -289 176 -357 8 -35 17
-48 30 -48 20 0 33 23 73 125 93 234 220 420 346 504 54 36 99 52 99 36 0 -3
-18 -39 -40 -79 -107 -195 -106 -348 2 -453 60 -58 99 -74 187 -80 66 -4 82
-1 121 19 25 13 55 39 68 58 21 31 23 44 20 113 -3 68 -6 82 -26 97 -29 24
-48 17 -61 -23 -25 -70 -69 -84 -148 -46 -73 35 -123 115 -123 195 0 16 14 53
30 82 27 46 34 52 63 52 33 0 76 -24 161 -90 55 -42 123 -60 232 -60 154 0
184 29 97 92 -36 26 -63 61 -110 141 -35 58 -77 117 -95 132 -31 26 -32 28
-13 41 49 36 143 -18 239 -140 41 -51 95 -111 121 -134 91 -80 244 -118 378
-92 107 20 124 62 46 110 -48 29 -96 84 -204 230 -43 58 -91 119 -107 137 -34
35 -31 49 13 58 37 8 91 -18 248 -120 166 -108 235 -137 340 -143 72 -4 102
-1 158 16 102 31 228 130 208 162 -3 6 -25 10 -49 10 -23 0 -62 7 -87 15 -51
18 -272 165 -269 180 1 6 35 22 75 37 61 22 99 28 246 37 96 6 192 16 214 22
112 32 227 128 278 233 27 56 67 208 81 312 6 37 4 53 -6 62 -17 14 -29 6 -56
-39 -34 -57 -167 -169 -200 -169 -4 0 12 59 35 130 38 115 50 138 96 193 63
74 106 135 138 197 19 37 23 61 24 135 0 97 2 93 -116 355 -35 80 -43 108 -47
178 -4 70 -7 82 -21 80 -23 -4 -151 -194 -211 -313 -59 -118 -80 -193 -80
-290 0 -100 21 -170 101 -335 80 -166 80 -150 4 -280 -44 -75 -150 -210 -164
-210 -5 0 -5 19 0 43 16 82 9 177 -22 316 -16 75 -34 178 -38 229 -4 51 -10
95 -13 97 -15 15 -45 -19 -114 -127 -42 -67 -86 -141 -97 -167 -29 -64 -27
-168 6 -296 43 -170 43 -249 0 -280 -24 -17 -121 -51 -128 -44 -3 3 5 28 17
55 19 42 22 65 21 159 -1 61 -6 162 -10 225 -7 108 -9 115 -30 118 -17 3 -33
-12 -73 -70 -75 -106 -118 -196 -149 -316 -16 -59 -35 -123 -44 -143 -25 -59
-83 -116 -135 -133 -61 -19 -112 -29 -112 -22 0 4 14 31 30 60 41 73 48 99 65
256 8 74 17 156 21 183 6 43 5 47 -14 47 -27 0 -162 -102 -233 -176 -72 -75
-102 -124 -145 -237 -39 -104 -59 -137 -134 -222 -53 -60 -106 -102 -116 -92
-3 3 -1 21 5 39 12 36 34 415 25 429 -16 27 -79 -6 -178 -94 -46 -41 -74 -76
-96 -121 -30 -60 -32 -74 -40 -217 -9 -162 -14 -189 -36 -189 -21 0 -210 147
-290 225 -88 87 -133 156 -194 295 -26 59 -52 106 -61 108 -11 2 -30 -29 -65
-105 -63 -137 -110 -211 -193 -296 -102 -106 -289 -242 -307 -224 -4 4 -11 73
-16 154 -5 81 -15 171 -24 200 -23 84 -95 167 -212 245 -78 52 -95 41 -81 -52
4 -30 8 -105 8 -167 1 -62 6 -135 12 -163 6 -28 9 -54 6 -56 -3 -3 -18 1 -34
9 -52 27 -131 140 -215 308 -71 142 -91 173 -148 229 -77 78 -198 170 -222
170 -22 0 -22 -2 -2 -176 19 -171 36 -249 69 -314 29 -58 27 -59 -63 -40 -101
22 -152 95 -201 285 -17 66 -45 147 -61 180 -43 85 -131 199 -156 203 -19 3
-22 -4 -28 -60 -3 -35 -9 -130 -12 -213 -5 -134 -4 -157 15 -215 11 -35 18
-66 16 -68 -8 -9 -108 34 -133 56 -24 23 -25 27 -19 110 4 48 16 121 27 162
31 114 36 207 16 268 -18 53 -157 272 -194 306 -24 21 -19 34 -46 -119 -8 -49
-25 -124 -37 -165 -23 -82 -31 -253 -16 -344 7 -38 6 -47 -5 -44 -27 9 -145
170 -187 254 l-43 86 65 137 c88 183 112 262 111 376 0 137 -31 216 -161 408
-76 113 -120 167 -135 167 -4 0 -8 -17 -8 -39z"/>
</g>
</svg>
